<?xml version="1.0" encoding="iso-8859-1"?>
<!-- Generator: Adobe Illustrator 18.1.1, SVG Export Plug-In . SVG Version: 6.00 Build 0)  -->
<svg version="1.1" id="Capa_1" xmlns="http://www.w3.org/2000/svg" xmlns:xlink="http://www.w3.org/1999/xlink" x="0px" y="0px"
	 viewBox="0 0 30.013 30.013" style="enable-background:new 0 0 30.013 30.013;" xml:space="preserve">
<g>
	<g>
		<polygon style="fill:#010002;" points="24.304,16.085 23.585,15.368 22.387,16.563 22.387,19.155 24.304,21.072 		"/>
		<polygon style="fill:#010002;" points="24.304,8.925 22.387,10.816 22.387,13.428 23.585,14.651 24.304,13.912 		"/>
		<path style="fill:#010002;" d="M5.306,7.253L3.469,5.416c-2.007,2.42-3.272,5.478-3.438,8.83H2.61
			C2.768,11.606,3.757,9.195,5.306,7.253z"/>
		<path style="fill:#010002;" d="M2.609,15.764H0.03c0.183,3.68,1.697,6.997,4.058,9.515l1.82-1.824
			C4.014,21.41,2.79,18.731,2.609,15.764z"/>
		<polygon style="fill:#010002;" points="22.036,10.463 23.953,8.545 16.506,8.545 18.421,10.463 		"/>
		<polygon style="fill:#010002;" points="16.136,13.91 16.854,14.65 18.053,13.42 18.053,10.798 16.136,8.907 		"/>
		<polygon style="fill:#010002;" points="22.034,19.538 18.419,19.538 16.504,21.453 23.953,21.453 		"/>
		<path style="fill:#010002;" d="M5.18,26.332c2.459,2.141,5.618,3.503,9.099,3.681v-2.581c-2.769-0.169-5.29-1.239-7.277-2.922
			L5.18,26.332z"/>
		<polygon style="fill:#010002;" points="16.136,21.091 18.053,19.175 18.053,16.569 16.854,15.367 16.136,16.089 		"/>
		<polygon style="fill:#010002;" points="5.808,13.91 6.527,14.65 7.726,13.42 7.726,10.798 5.808,8.907 		"/>
		<polygon style="fill:#010002;" points="8.096,10.463 11.71,10.463 13.626,8.545 6.178,8.545 		"/>
		<polygon style="fill:#010002;" points="5.809,16.089 5.809,21.091 7.726,19.175 7.726,16.569 6.529,15.367 		"/>
		<path style="fill:#010002;" d="M6.321,6.122c2.076-2.039,4.86-3.353,7.958-3.542V0C10.472,0.191,7.042,1.796,4.5,4.301
			L6.321,6.122z"/>
		<polygon style="fill:#010002;" points="13.976,16.085 13.258,15.368 12.06,16.563 12.06,19.155 13.976,21.072 		"/>
		<polygon style="fill:#010002;" points="11.95,15.961 12.909,15.002 11.95,14.04 7.856,14.04 6.897,15.002 7.856,15.961 		"/>
		<polygon style="fill:#010002;" points="11.709,19.538 8.095,19.538 6.177,21.453 13.626,21.453 		"/>
		<path style="fill:#010002;" d="M25.515,4.301c-2.543-2.505-5.974-4.11-9.78-4.301v2.58c3.097,0.189,5.882,1.503,7.958,3.542
			L25.515,4.301z"/>
		<path style="fill:#010002;" d="M27.404,14.246h2.579c-0.168-3.352-1.432-6.41-3.439-8.83l-1.837,1.836
			C26.257,9.195,27.244,11.606,27.404,14.246z"/>
		<path style="fill:#010002;" d="M24.104,23.454l1.821,1.824c2.36-2.518,3.874-5.835,4.058-9.515h-2.579
			C27.224,18.731,25.999,21.41,24.104,23.454z"/>
		<path style="fill:#010002;" d="M15.734,27.432v2.581c3.481-0.178,6.64-1.54,9.1-3.681l-1.823-1.822
			C21.024,26.193,18.503,27.263,15.734,27.432z"/>
	</g>
</g>
<g>
</g>
<g>
</g>
<g>
</g>
<g>
</g>
<g>
</g>
<g>
</g>
<g>
</g>
<g>
</g>
<g>
</g>
<g>
</g>
<g>
</g>
<g>
</g>
<g>
</g>
<g>
</g>
<g>
</g>
</svg>
